HIERARCHY
ROOT hip
{
  OFFSET 0 0 0
  CHANNELS 6 Xposition Yposition Zposition Zrotation Yrotation Xrotation
  JOINT abdomen
  {
    OFFSET 0 20.6881 -0.73152
    CHANNELS 3 Zrotation Xrotation Yrotation
    JOINT chest
    {
      OFFSET 0 11.7043 -0.48768
      CHANNELS 3 Zrotation Xrotation Yrotation
      JOINT neck
      {
        OFFSET 0 22.1894 -2.19456
        CHANNELS 3 Zrotation Xrotation Yrotation
        JOINT head
        {
          OFFSET -0.24384 7.07133 1.2192
          CHANNELS 3 Zrotation Xrotation Yrotation
          JOINT leftEye
          {
            OFFSET 4.14528 8.04674 8.04672
            CHANNELS 3 Zrotation Xrotation Yrotation
            End Site
            {
              OFFSET 1 0 0
            }
          }
          JOINT rightEye
          {
            OFFSET -3.6576 8.04674 8.04672
            CHANNELS 3 Zrotation Xrotation Yrotation
            End Site
            {
              OFFSET 1 0 0
            }
          }
        }
      }
      JOINT rCollar
      {
        OFFSET -2.68224 19.2634 -4.8768
        CHANNELS 3 Zrotation Xrotation Yrotation
        JOINT rShldr
        {
          OFFSET -8.77824 -1.95073 1.46304
          CHANNELS 3 Zrotation Xrotation Yrotation
          JOINT rForeArm
          {
            OFFSET -28.1742 -1.7115 0.48768
            CHANNELS 3 Zrotation Xrotation Yrotation
            JOINT rHand
            {
              OFFSET -22.5879 0.773209 7.07136
              CHANNELS 3 Zrotation Xrotation Yrotation
              JOINT rThumb1
              {
                OFFSET -1.2192 -0.487915 3.41376
                CHANNELS 3 Zrotation Xrotation Yrotation
                JOINT rThumb2
                {
                  OFFSET -3.37035 -0.52449 3.41376
                  CHANNELS 3 Zrotation Xrotation Yrotation
                  End Site
                  {
                    OFFSET -1.78271 -1.18214 1.43049
                  }
                }
              }
              JOINT rIndex1
              {
                OFFSET -7.75947 0.938293 5.60832
                CHANNELS 3 Zrotation Xrotation Yrotation
                JOINT rIndex2
                {
                  OFFSET -2.54057 -0.884171 1.56538
                  CHANNELS 3 Zrotation Xrotation Yrotation
                  End Site
                  {
                    OFFSET -1.62519 -0.234802 1.16502
                  }
                }
              }
              JOINT rMid1
              {
                OFFSET -8.24714 1.18213 3.41376
                CHANNELS 3 Zrotation Xrotation Yrotation
                JOINT rMid2
                {
                  OFFSET -3.10165 -0.590103 1.0647
                  CHANNELS 3 Zrotation Xrotation Yrotation
                  End Site
                  {
                    OFFSET -2.48547 -0.328903 0.83742
                  }
                }
              }
              JOINT rRing1
              {
                OFFSET -8.82822 0.546677 1.51678
                CHANNELS 3 Zrotation Xrotation Yrotation
                JOINT rRing2
                {
                  OFFSET -2.60934 -0.819778 -0.0198488
                  CHANNELS 3 Zrotation Xrotation Yrotation
                  End Site
                  {
                    OFFSET -2.33842 -0.294052 0.168128
                  }
                }
              }
              JOINT rPinky1
              {
                OFFSET -8.27202 -0.0477905 -0.4584
                CHANNELS 3 Zrotation Xrotation Yrotation
                JOINT rPinky2
                {
                  OFFSET -1.82734 -0.647385 -0.700984
                  CHANNELS 3 Zrotation Xrotation Yrotation
                  End Site
                  {
                    OFFSET -1.69225 -0.51767 -0.607171
                  }
                }
              }
            }
          }
        }
      }
      JOINT lCollar
      {
        OFFSET 2.68224 19.2634 -4.8768
        CHANNELS 3 Zrotation Xrotation Yrotation
        JOINT lShldr
        {
          OFFSET 8.77824 -1.95073 1.46304
          CHANNELS 3 Zrotation Xrotation Yrotation
          JOINT lForeArm
          {
            OFFSET 28.1742 -1.7115 0.48768
            CHANNELS 3 Zrotation Xrotation Yrotation
            JOINT lHand
            {
              OFFSET 22.5879 0.773209 7.07136
              CHANNELS 3 Zrotation Xrotation Yrotation
              JOINT lThumb1
              {
                OFFSET 1.2192 -0.487915 3.41376
                CHANNELS 3 Zrotation Xrotation Yrotation
                JOINT lThumb2
                {
                  OFFSET 3.37035 -0.52449 3.41376
                  CHANNELS 3 Zrotation Xrotation Yrotation
                  End Site
                  {
                    OFFSET 1.78271 -1.18214 1.43049
                  }
                }
              }
              JOINT lIndex1
              {
                OFFSET 7.75947 0.938293 5.60832
                CHANNELS 3 Zrotation Xrotation Yrotation
                JOINT lIndex2
                {
                  OFFSET 2.54057 -0.884171 1.56538
                  CHANNELS 3 Zrotation Xrotation Yrotation
                  End Site
                  {
                    OFFSET 1.62519 -0.234802 1.16502
                  }
                }
              }
              JOINT lMid1
              {
                OFFSET 8.24714 1.18213 3.41376
                CHANNELS 3 Zrotation Xrotation Yrotation
                JOINT lMid2
                {
                  OFFSET 3.10165 -0.590103 1.0647
                  CHANNELS 3 Zrotation Xrotation Yrotation
                  End Site
                  {
                    OFFSET 2.48547 -0.328903 0.83742
                  }
                }
              }
              JOINT lRing1
              {
                OFFSET 8.82822 0.546677 1.51678
                CHANNELS 3 Zrotation Xrotation Yrotation
                JOINT lRing2
                {
                  OFFSET 2.60934 -0.819778 -0.0198488
                  CHANNELS 3 Zrotation Xrotation Yrotation
                  End Site
                  {
                    OFFSET 2.33842 -0.294052 0.168128
                  }
                }
              }
              JOINT lPinky1
              {
                OFFSET 8.27202 -0.0477905 -0.4584
                CHANNELS 3 Zrotation Xrotation Yrotation
                JOINT lPinky2
                {
                  OFFSET 1.82734 -0.647385 -0.700984
                  CHANNELS 3 Zrotation Xrotation Yrotation
                  End Site
                  {
                    OFFSET 1.69225 -0.51767 -0.607171
                  }
                }
              }
            }
          }
        }
      }
    }
  }
  JOINT rButtock
  {
    OFFSET -8.77824 4.35084 1.2192
    CHANNELS 3 Zrotation Xrotation Yrotation
    JOINT rThigh
    {
      OFFSET 0 -1.70687 -2.19456
      CHANNELS 3 Zrotation Xrotation Yrotation
      JOINT rShin
      {
        OFFSET 0 -36.8199 0.73152
        CHANNELS 3 Zrotation Xrotation Yrotation
        JOINT rFoot
        {
          OFFSET 0.73152 -45.1104 -5.12064
          CHANNELS 3 Zrotation Xrotation Yrotation
          End Site
          {
            OFFSET -1.1221 -3.69964 12.103
          }
        }
      }
    }
  }
  JOINT lButtock
  {
    OFFSET 8.77824 4.35084 1.2192
    CHANNELS 3 Zrotation Xrotation Yrotation
    JOINT lThigh
    {
      OFFSET 0 -1.70687 -2.19456
      CHANNELS 3 Zrotation Xrotation Yrotation
      JOINT lShin
      {
        OFFSET 0 -36.8199 0.73152
        CHANNELS 3 Zrotation Xrotation Yrotation
        JOINT lFoot
        {
          OFFSET -0.73152 -45.1104 -5.12064
          CHANNELS 3 Zrotation Xrotation Yrotation
          End Site
          {
            OFFSET 1.1221 -3.69964 12.103
          }
        }
      }
    }
  }
}
MOTION
Frames:	4
Frame Time:	0.00833333
-88.6024 85.0966 -9.63608 0.0 0.0 0.0 0.283894 -0.00291391 0.00816072 0.0784591 -0.00473299 0.0135944 6.38501e-15 1.59028e-15 2.48481e-17 1.90523e-14 9.54166e-15 5.90142e-17 -0.0 0.0 0.0 -0.0 0.0 0.0 3.27872e-15 -1.94126e-18 9.93923e-17 6.87738e-14 -1.49089e-16 1.59028e-15 1.14783e-12 -3.42705e-13 -1.27222e-14 1.31131e-11 3.43724e-13 7.95139e-14 3.09307e-11 1.46358e-15 1.43125e-13 5.34043e-11 0.0 2.48878e-13 3.09365e-11 7.95139e-16 1.36764e-13 7.73091 5.47488 0.417314 3.09304e-11 1.09332e-15 1.49486e-13 2.90554 0.965183 0.102902 3.09341e-11 1.49089e-15 1.41535e-13 10.2786 0.731801 0.0259123 3.09321e-11 1.59028e-15 1.49486e-13 2.22167 -0.733487 -0.20892 3.0826e-15 -1.94126e-18 -4.96962e-17 6.5247e-14 -1.49089e-16 -5.96354e-16 1.14326e-12 3.42705e-13 1.27222e-14 1.31103e-11 -3.45214e-13 5.40694e-14 3.09207e-11 -6.36207e-15 1.33583e-13 5.34107e-11 -1.27222e-14 2.45698e-13 3.09154e-11 -5.56597e-15 1.46306e-13 -7.73091 5.47488 -0.417314 3.09208e-11 -6.65929e-15 1.36764e-13 -2.90554 0.965183 -0.102902 3.09127e-11 -6.4605e-15 1.4392e-13 -10.2786 0.731801 -0.0259123 3.0921e-11 -3.97569e-15 1.46306e-13 -2.22167 -0.733487 0.20892 -2.03217e-16 0.0 -3.88251e-19 0.668912 -3.85853 -0.057248 -0.00341784 1.43794 -0.0274399 -0.455254 2.42105 0.10033 2.03217e-16 0.0 3.88251e-19 -0.234826 -2.72419 0.0299387 0.00662648 -0.616662 0.0579729 0.44944 3.34127 -0.117941
-82.9485 83.4146 -15.469 -147.538 80.9075 -141.027 0.368379 -0.0519069 0.0346308 0.632773 -0.556771 0.0418866 0.532512 -2.24073 -0.0206236 -1.90908 6.05671 0.563906 -0.0 0.0 0.0 -0.0 0.0 0.0 -5.07123e-14 1.48156e-13 1.16749e-13 20.9585 8.64431 -0.367833 -4.77612 -2.29333 7.32188 0.000139291 0.261971 0.0368163 4.00891e-10 1.50272e-10 -3.34547e-10 6.9031e-10 2.59359e-10 -5.7935e-10 4.00897e-10 1.50272e-10 -3.34554e-10 7.73091 5.47488 0.417314 4.00887e-10 1.50269e-10 -3.34538e-10 2.90554 0.965183 0.102902 4.00897e-10 1.50271e-10 -3.34549e-10 10.2786 0.731801 0.0259123 4.00893e-10 1.50271e-10 -3.34542e-10 2.22167 -0.733487 -0.20892 -5.08789e-14 1.48159e-13 1.1656e-13 -21.4617 8.90893 0.317411 4.86574 -2.35668 -7.43499 -0.118087 -7.63599 1.03907 6.04458e-10 1.18967e-10 7.60289e-10 1.03093e-09 2.14004e-10 1.32457e-09 6.04453e-10 1.18967e-10 7.603e-10 -7.73091 5.47488 -0.417314 6.04458e-10 1.18967e-10 7.60291e-10 -2.90554 0.965183 -0.102902 6.0445e-10 1.18967e-10 7.60296e-10 -10.2786 0.731801 -0.0259123 6.0446e-10 1.18969e-10 7.60294e-10 -2.22167 -0.733487 0.20892 -2.03217e-16 0.0 -3.88251e-19 1.90467 -6.36973 4.54994 0.0293364 6.54183 0.0950321 -1.26018 -0.904574 -9.46418 2.03217e-16 0.0 3.88251e-19 1.01004 -7.11568 -1.1959 -0.00576468 6.37249 -0.0773068 0.824583 -0.363873 3.59027
-82.8915 83.418 -15.5937 -147.321 80.9297 -140.845 0.455903 -0.107273 0.0584904 1.22276 -1.14216 0.0707187 1.1049 -4.61036 -0.0304861 -4.10274 12.4529 1.20866 -0.0 0.0 0.0 -0.0 0.0 0.0 -1.11935e-13 3.19251e-13 2.494e-13 43.2292 17.7909 -0.78017 -9.17783 -4.58062 15.0766 -8.00055e-05 0.540031 0.0758961 8.2899e-10 3.20282e-10 -7.13381e-10 1.42734e-09 5.52791e-10 -1.23543e-09 8.28996e-10 3.20283e-10 -7.13389e-10 7.73091 5.47488 0.417314 8.28981e-10 3.20276e-10 -7.1337e-10 2.90554 0.965183 0.102902 8.28997e-10 3.20279e-10 -7.13384e-10 10.2786 0.731801 0.0259123 8.28992e-10 3.20279e-10 -7.13379e-10 2.22167 -0.733487 -0.20892 -1.12069e-13 3.19256e-13 2.4917e-13 -44.277 18.3354 0.683259 9.35543 -4.71966 -15.3425 0.0689186 -15.712 2.2024 1.26809e-09 2.59163e-10 1.63666e-09 2.16207e-09 4.66024e-10 2.85141e-09 1.26808e-09 2.59162e-10 1.63667e-09 -7.73091 5.47488 -0.417314 1.26809e-09 2.59163e-10 1.63666e-09 -2.90554 0.965183 -0.102902 1.26808e-09 2.59163e-10 1.63667e-09 -10.2786 0.731801 -0.0259123 1.26809e-09 2.59165e-10 1.63666e-09 -2.22167 -0.733487 0.20892 -2.03217e-16 0.0 -3.88251e-19 3.65565 -8.94304 9.48656 0.0399027 11.9374 0.228484 -3.30421 -4.204 -19.6341 2.03217e-16 0.0 3.88251e-19 2.12027 -11.7521 -2.52069 0.0178778 13.7596 -0.22573 1.7404 -4.24498 7.52135
-82.8432 83.4198 -15.7079 -147.053 80.9458 -140.589 0.537486 -0.149893 0.0875711 1.74304 -1.66085 0.0985064 1.59267 -6.72219 -0.0622514 -6.10079 18.1629 1.77052 -0.0 0.0 0.0 -0.0 0.0 0.0 -1.58694e-13 4.44473e-13 3.50047e-13 63.2402 25.9284 -1.21309 -12.6086 -6.43156 22.0942 -0.00059221 0.785912 0.110458 1.14081e-09 4.50813e-10 -1.00393e-09 1.96412e-09 7.78076e-10 -1.73855e-09 1.14082e-09 4.50815e-10 -1.00393e-09 7.73091 5.47488 0.417314 1.1408e-09 4.50806e-10 -1.00391e-09 2.90554 0.965183 0.102902 1.14082e-09 4.5081e-10 -1.00393e-09 10.2786 0.731801 0.0259123 1.14081e-09 4.50809e-10 -1.00393e-09 2.22167 -0.733487 -0.20892 -1.58802e-13 4.4448e-13 3.4978e-13 -64.7115 26.7233 1.05326 12.8037 -6.59486 -22.4425 0.536454 -22.8765 3.35362 1.75153e-09 3.56914e-10 2.2806e-09 2.98598e-09 6.42037e-10 3.97322e-09 1.75153e-09 3.56913e-10 2.28061e-09 -7.73091 5.47488 -0.417314 1.75153e-09 3.56913e-10 2.2806e-09 -2.90554 0.965183 -0.102902 1.75153e-09 3.56914e-10 2.2806e-09 -10.2786 0.731801 -0.0259123 1.75154e-09 3.56916e-10 2.28059e-09 -2.22167 -0.733487 0.20892 -2.03217e-16 0.0 -3.88251e-19 5.59383 -11.123 13.9467 0.0269483 16.7493 0.353082 -6.07624 -6.66294 -28.802 2.03217e-16 0.0 3.88251e-19 2.91651 -15.8707 -3.76354 0.073455 20.3504 -0.369489 3.01357 -7.63243 11.1057
